<?xml version="1.0" encoding="UTF-8"?><svg id="Calque_1" xmlns="http://www.w3.org/2000/svg" viewBox="0 0 241.79 138.2"><path d="M34.84,60.13c2.65,0,4.15,0,5.64,0,63.75,0,127.5,0,191.25,0,6.66,0,10.67,4.12,9.98,10.14-.49,4.29-3.87,7.52-8.2,7.79-1.24,.08-2.49,.03-3.74,.03-63.25,0-126.5,0-189.76,0h-5.16c5.82,4.71,10.88,8.81,15.94,12.9,12.61,10.19,25.25,20.35,37.83,30.57,4.02,3.27,5.14,7.2,3.42,11.22-2.49,5.8-9.26,7.22-14.69,2.94-6.66-5.25-13.21-10.64-19.81-15.96-17.68-14.23-35.35-28.47-53.04-42.68-5.88-4.73-6.01-11.06-.21-15.73C28.45,41.86,52.63,22.38,76.85,2.95c1.42-1.14,3.11-2.19,4.84-2.64,4.19-1.1,8.17,.85,10.08,4.54,2,3.86,1.08,8.36-2.64,11.4-10.14,8.28-20.37,16.46-30.56,24.69-7.64,6.17-15.26,12.34-23.74,19.2Z"/></svg>